<svg xmlns="http://www.w3.org/2000/svg" xmlns:xlink="http://www.w3.org/1999/xlink" viewBox="0 0 430 430" width="430" height="430" preserveAspectRatio="xMidYMid meet" style="width: 100%; height: 100%; transform: translate3d(0px, 0px, 0px); content-visibility: visible;"><defs><clipPath id="__lottie_element_473"><rect width="430" height="430" x="0" y="0"/></clipPath><clipPath id="__lottie_element_475"><path d="M0,0 L430,0 L430,430 L0,430z"/></clipPath><g id="__lottie_element_485"><g transform="matrix(1,0,0,1,214.99000549316406,215)" opacity="1" style="display: none;"><g opacity="1" transform="matrix(1,0,0,1,0,0)"><path fill="rgb(255,199,56)" fill-opacity="1" d=" M158.27999877929688,180.59500122070312 C164.00999450683594,178 164.56199645996094,182.99099731445312 177.50999450683594,160.7689971923828 C177.50999450683594,160.7689971923828 -112.177001953125,-199.4250030517578 -112.177001953125,-199.4250030517578 C-135.81199645996094,-189.2830047607422 -135.99000549316406,-181.00100708007812 -140.50999450683594,-179.09100341796875 C-140.50999450683594,-179.09100341796875 158.27999877929688,180.59500122070312 158.27999877929688,180.59500122070312z"/></g></g></g><filter id="__lottie_element_507" filterUnits="objectBoundingBox" x="0%" y="0%" width="100%" height="100%"><feComponentTransfer in="SourceGraphic"><feFuncA type="table" tableValues="1.0 0.0"/></feComponentTransfer></filter><mask id="__lottie_element_485_2" mask-type="alpha"><g filter="url(#__lottie_element_507)"><rect width="430" height="430" x="0" y="0" fill="#ffffff" opacity="0"/><use xmlns:ns1="http://www.w3.org/1999/xlink" ns1:href="#__lottie_element_485"/></g></mask><g id="__lottie_element_670"><g style="display: none;" transform="matrix(1,0,0,1,214.99000549316406,215)" opacity="1"><g opacity="1" transform="matrix(1,0,0,1,0,0)"><path fill="rgb(255,199,56)" fill-opacity="1" d=" M88.77999877929688,172.9499969482422 C120.46199798583984,159.3560028076172 142.10400390625,133.26699829101562 159.4600067138672,103.4800033569336 C159.4600067138672,103.4800033569336 -91.44999694824219,-180.27999877929688 -91.44999694824219,-180.27999877929688 C-123.13200378417969,-166.68600463867188 -149.60400390625,-143.26699829101562 -166.9600067138672,-113.4800033569336 C-166.9600067138672,-113.4800033569336 88.77999877929688,172.9499969482422 88.77999877929688,172.9499969482422z"/></g></g></g><filter id="__lottie_element_686" filterUnits="objectBoundingBox" x="0%" y="0%" width="100%" height="100%"><feComponentTransfer in="SourceGraphic"><feFuncA type="table" tableValues="1.0 0.0"/></feComponentTransfer></filter><mask id="__lottie_element_670_2" mask-type="alpha"><g filter="url(#__lottie_element_686)"><rect width="430" height="430" x="0" y="0" fill="#ffffff" opacity="0"/><use xmlns:ns2="http://www.w3.org/1999/xlink" ns2:href="#__lottie_element_670"/></g></mask><g id="__lottie_element_756"><g transform="matrix(1,0,0,1,214.99000549316406,215)" opacity="1" style="display: none;"><g opacity="1" transform="matrix(1,0,0,1,0,0)"><path fill="rgb(255,199,56)" fill-opacity="1" d=" M39.28001403808594,301.594970703125 C45.0100212097168,298.9999694824219 45.56202697753906,303.9909362792969 58.51002883911133,281.7689514160156 C58.51002883911133,281.7689514160156 -231.1769561767578,-78.42503356933594 -231.1769561767578,-78.42503356933594 C-254.8119659423828,-68.28302764892578 -254.98997497558594,-60.00102615356445 -259.5099792480469,-58.09101486206055 C-259.5099792480469,-58.09101486206055 39.28001403808594,301.594970703125 39.28001403808594,301.594970703125z"/></g></g></g><filter id="__lottie_element_775" filterUnits="objectBoundingBox" x="0%" y="0%" width="100%" height="100%"><feComponentTransfer in="SourceGraphic"><feFuncA type="table" tableValues="1.0 0.0"/></feComponentTransfer></filter><mask id="__lottie_element_756_2" mask-type="alpha"><g filter="url(#__lottie_element_775)"><rect width="430" height="430" x="0" y="0" fill="#ffffff" opacity="0"/><use xmlns:ns3="http://www.w3.org/1999/xlink" ns3:href="#__lottie_element_756"/></g></mask><g id="__lottie_element_878"><g style="display: block;" transform="matrix(1,0,0,1,214.99000549316406,215)" opacity="1"><g opacity="1" transform="matrix(1,0,0,1,0,0)"><path fill="rgb(255,199,56)" fill-opacity="1" d=" M88.77999877929688,172.9499969482422 C120.46199798583984,159.3560028076172 142.10400390625,133.26699829101562 159.4600067138672,103.4800033569336 C159.4600067138672,103.4800033569336 -91.44999694824219,-180.27999877929688 -91.44999694824219,-180.27999877929688 C-123.13200378417969,-166.68600463867188 -149.60400390625,-143.26699829101562 -166.9600067138672,-113.4800033569336 C-166.9600067138672,-113.4800033569336 88.77999877929688,172.9499969482422 88.77999877929688,172.9499969482422z"/></g></g></g><filter id="__lottie_element_891" filterUnits="objectBoundingBox" x="0%" y="0%" width="100%" height="100%"><feComponentTransfer in="SourceGraphic"><feFuncA type="table" tableValues="1.0 0.0"/></feComponentTransfer></filter><mask id="__lottie_element_878_2" mask-type="alpha"><g filter="url(#__lottie_element_891)"><rect width="430" height="430" x="0" y="0" fill="#ffffff" opacity="0"/><use xmlns:ns4="http://www.w3.org/1999/xlink" ns4:href="#__lottie_element_878"/></g></mask></defs><g clip-path="url(#__lottie_element_473)"><g clip-path="url(#__lottie_element_475)" transform="matrix(1,0,0,1,0,0)" opacity="1" style="display: block;"><g transform="matrix(1,0,0,1,215,214.5)" opacity="1" style="display: none;"><g opacity="1" transform="matrix(1,0,0,1,-0.7710000276565552,-0.30000001192092896)"><path class="secondary" fill="rgb(255,199,56)" fill-opacity="1" d=" M0.6293615698814392,-167.6999969482422 C0.6293615698814392,-167.6999969482422 165.76748657226562,-165.795166015625 166.521484375,0.7048408389091492 C167.2577667236328,163.204833984375 0.6679916381835938,167.6999969482422 0.6679916381835938,167.6999969482422 C0.6679916381835938,167.6999969482422 0.32460838556289673,167.6999969482422 0.32460838556289673,167.6999969482422 C0.32460838556289673,167.6999969482422 164.70611572265625,165.31723022460938 165.47872924804688,0.1298532783985138 C166.2501983642578,-164.67286682128906 0.32460838556289673,-167.6999969482422 0.32460838556289673,-167.6999969482422 C0.32460838556289673,-167.6999969482422 0.6293615698814392,-167.6999969482422 0.6293615698814392,-167.6999969482422z"/><path class="secondary" fill="rgb(255,199,56)" fill-opacity="0" d=" M0.6293615698814392,-167.6999969482422 C0.6293615698814392,-167.6999969482422 165.76748657226562,-165.795166015625 166.521484375,0.7048408389091492 C167.2577667236328,163.204833984375 0.6679916381835938,167.6999969482422 0.6679916381835938,167.6999969482422 C0.6679916381835938,167.6999969482422 0.32460838556289673,167.6999969482422 0.32460838556289673,167.6999969482422 C0.32460838556289673,167.6999969482422 164.70611572265625,165.31723022460938 165.47872924804688,0.1298532783985138 C166.2501983642578,-164.67286682128906 0.32460838556289673,-167.6999969482422 0.32460838556289673,-167.6999969482422 C0.32460838556289673,-167.6999969482422 0.6293615698814392,-167.6999969482422 0.6293615698814392,-167.6999969482422z" style="mix-blend-mode: multiply;"/></g></g><g transform="matrix(1,0,0,1,254.34439086914062,214.5)" opacity="1" style="display: none;"><g opacity="1" transform="matrix(1,0,0,1,0,0)"><path class="secondary" fill="rgb(255,199,56)" fill-opacity="1" d=" M0,-167.5 C3.510024309158325,-167.5 6.3556904792785645,-92.50800323486328 6.3556904792785645,0 C6.3556904792785645,92.50800323486328 3.510024309158325,167.5 0,167.5 C0,167.5 0,167.5 0,167.5"/></g></g><g mask="url(#__lottie_element_485_2)" style="display: none;"><g transform="matrix(1,0,0,1,254.34439086914062,214.5)" opacity="1"><g opacity="1" transform="matrix(1,0,0,1,0,0)"><path class="secondary" fill="rgb(255,199,56)" fill-opacity="0" d=" M0,-167.5 C3.510024309158325,-167.5 6.3556904792785645,-92.50800323486328 6.3556904792785645,0 C6.3556904792785645,92.50800323486328 3.510024309158325,167.5 0,167.5 C0,167.5 0,167.5 0,167.5"/><path class="secondary" fill="rgb(255,199,56)" fill-opacity="0" d=" M0,-167.5 C3.510024309158325,-167.5 6.3556904792785645,-92.50800323486328 6.3556904792785645,0 C6.3556904792785645,92.50800323486328 3.510024309158325,167.5 0,167.5 C0,167.5 0,167.5 0,167.5" style="mix-blend-mode: multiply;"/></g></g></g><g transform="matrix(1,0,0,1,254.34439086914062,214.5)" opacity="1" style="display: none;"><g opacity="1" transform="matrix(1,0,0,1,0,0)"/><g opacity="0" transform="matrix(1,0,0,1,0,0)"><path stroke-linecap="round" stroke-linejoin="round" fill-opacity="0" class="tertiary" stroke="rgb(178,104,54)" stroke-opacity="1" stroke-width="0" d=" M0,129 C2.703667163848877,129 4.894758224487305,71.24500274658203 4.894758224487305,0 C4.894758224487305,-71.24500274658203 2.703667163848877,-129 0,-129 C-2.703667163848877,-129 -4.894758224487305,-71.24500274658203 -4.894758224487305,0 C-4.894758224487305,71.24500274658203 -2.703667163848877,129 0,129z"/></g></g><g transform="matrix(1,0,0,1,174.65745544433594,214.5)" opacity="1" style="display: none;"/><g transform="matrix(1,0,0,1,253.810546875,215)" opacity="1" style="display: none;"><g opacity="1" transform="matrix(1,0,0,1,0,0)"><path stroke-linecap="round" stroke-linejoin="round" fill-opacity="0" class="tertiary" stroke="rgb(178,104,54)" stroke-opacity="1" stroke-width="0.004666666664235208" d=" M0.9521753191947937,-81.52799987792969 C0.9521753191947937,-81.52799987792969 0.9521753191947937,-55.44499969482422 0.9521753191947937,-55.44499969482422 M0.9521753191947937,57.263999938964844 C0.9521753191947937,57.263999938964844 0.9521753191947937,81.52799987792969 0.9521753191947937,81.52799987792969 M-0.31525924801826477,36.143001556396484 C0.05347125977277756,49.57400131225586 0.6561981439590454,57.14400100708008 1.2468702793121338,54.94599914550781 C1.4861359596252441,54.090999603271484 1.7166866064071655,51.650001525878906 1.9005695581436157,47.25400161743164 C2.0844523906707764,42.736000061035156 2.2149171829223633,36.26499938964844 2.219257116317749,29.30500030517578 C2.2529406547546387,-10.98799991607666 -0.2608411908149719,9.281000137329102 -0.11835680156946182,-30.156999588012695 C-0.0803334191441536,-40.65700149536133 0.2080104798078537,-49.448001861572266 0.5473973155021667,-52.62300109863281 C1.1674131155014038,-58.48400115966797 1.8712258338928223,-48.8380012512207 2.189913511276245,-32.84299850463867"/></g></g><g transform="matrix(1,0,0,1,214.5,214.5)" opacity="1" style="display: none;"><g opacity="1" transform="matrix(1,0,0,1,0,0)"><path class="secondary" fill="rgb(255,199,56)" fill-opacity="1" d=" M0,-167.5 C92.50800323486328,-167.5 167.5,-92.50800323486328 167.5,0 C167.5,92.50800323486328 92.50800323486328,167.5 0,167.5 C-92.50800323486328,167.5 -167.5,92.50800323486328 -167.5,0 C-167.5,-92.50800323486328 -92.50800323486328,-167.5 0,-167.5z"/></g></g><g mask="url(#__lottie_element_670_2)" style="display: none;"><g transform="matrix(1,0,0,1,214.5,214.5)" opacity="1"><g opacity="1" transform="matrix(1,0,0,1,0,0)"><path class="secondary" fill="rgb(255,199,56)" fill-opacity="1" d=" M0,-167.5 C92.50800323486328,-167.5 167.5,-92.50800323486328 167.5,0 C167.5,92.50800323486328 92.50800323486328,167.5 0,167.5 C-92.50800323486328,167.5 -167.5,92.50800323486328 -167.5,0 C-167.5,-92.50800323486328 -92.50800323486328,-167.5 0,-167.5z"/><path class="secondary" fill="rgb(255,199,56)" fill-opacity="0.5" d=" M0,-167.5 C92.50800323486328,-167.5 167.5,-92.50800323486328 167.5,0 C167.5,92.50800323486328 92.50800323486328,167.5 0,167.5 C-92.50800323486328,167.5 -167.5,92.50800323486328 -167.5,0 C-167.5,-92.50800323486328 -92.50800323486328,-167.5 0,-167.5z" style="mix-blend-mode: multiply;"/></g></g></g><g transform="matrix(1,0,0,1,214.5,214.5)" opacity="1" style="display: none;"><g opacity="1" transform="matrix(1,0,0,1,0,0)"><path stroke-linecap="round" stroke-linejoin="round" fill-opacity="0" class="tertiary" stroke="rgb(178,104,54)" stroke-opacity="1" stroke-width="7" d=" M0,129 C71.24500274658203,129 129,71.24500274658203 129,0 C129,-71.24500274658203 71.24500274658203,-129 0,-129 C-71.24500274658203,-129 -129,-71.24500274658203 -129,0 C-129,71.24500274658203 -71.24500274658203,129 0,129z"/></g></g><g transform="matrix(1,0,0,1,213.96800231933594,215)" opacity="1" style="display: none;"><g opacity="1" transform="matrix(1,0,0,1,0,0)"><path stroke-linecap="round" stroke-linejoin="round" fill-opacity="0" class="tertiary" stroke="rgb(178,104,54)" stroke-opacity="1" stroke-width="7" d=" M0,-81.52799987792969 C0,-81.52799987792969 0,-55.44499969482422 0,-55.44499969482422 M0,57.263999938964844 C0,57.263999938964844 0,81.52799987792969 0,81.52799987792969 M-37.152000427246094,36.143001556396484 C-26.34600067138672,49.57400131225586 -8.661999702453613,57.14400100708008 8.652999877929688,54.94599914550781 C15.652999877929688,54.090999603271484 22.4060001373291,51.650001525878906 27.80900001525879,47.25400161743164 C33.21200180053711,42.736000061035156 37.01900100708008,36.26499938964844 37.141998291015625,29.30500030517578 C38.124000549316406,-10.98799991607666 -35.55500030517578,9.281000137329102 -31.3799991607666,-30.156999588012695 C-30.274999618530273,-40.65700149536133 -21.802000045776367,-49.448001861572266 -11.854999542236328,-52.62300109863281 C6.318999767303467,-58.48400115966797 26.950000762939453,-48.8380012512207 36.28300094604492,-32.84299850463867"/></g></g><g transform="matrix(1,0,0,1,215,214.5)" opacity="1" style="display: none;"><g opacity="1" transform="matrix(1,0,0,1,-0.7710000276565552,-0.30000001192092896)"><path class="secondary" fill="rgb(255,199,56)" fill-opacity="1" d=" M0.2290000021457672,-167.6999969482422 C59.27000045776367,-160.1999969482422 167.28399658203125,-125.69100189208984 165.52200317382812,-0.3009999990463257 C163.77099609375,124.29900360107422 37.77000045776367,171.3000030517578 0.2290000021457672,167.6999969482422 C0.07699999958276749,167.68499755859375 0.5339999794960022,167.68499755859375 0.6859999895095825,167.6999969482422 C41.27000045776367,171.8000030517578 161.87600708007812,130.39700317382812 165.4810028076172,-0.8999999761581421 C168.77099609375,-120.69999694824219 58.27000045776367,-161.6999969482422 0.6859999895095825,-167.6999969482422 C0.5339999794960022,-167.71600341796875 0.07800000160932541,-167.718994140625 0.2290000021457672,-167.6999969482422z"/><path class="secondary" fill="rgb(255,199,56)" fill-opacity="0" d=" M0.2290000021457672,-167.6999969482422 C59.27000045776367,-160.1999969482422 167.28399658203125,-125.69100189208984 165.52200317382812,-0.3009999990463257 C163.77099609375,124.29900360107422 37.77000045776367,171.3000030517578 0.2290000021457672,167.6999969482422 C0.07699999958276749,167.68499755859375 0.5339999794960022,167.68499755859375 0.6859999895095825,167.6999969482422 C41.27000045776367,171.8000030517578 161.87600708007812,130.39700317382812 165.4810028076172,-0.8999999761581421 C168.77099609375,-120.69999694824219 58.27000045776367,-161.6999969482422 0.6859999895095825,-167.6999969482422 C0.5339999794960022,-167.71600341796875 0.07800000160932541,-167.718994140625 0.2290000021457672,-167.6999969482422z" style="mix-blend-mode: multiply;"/></g></g><g transform="matrix(1,0,0,1,214.5,214.5)" opacity="1" style="display: none;"><g opacity="0" transform="matrix(1,0,0,1,0,0)"><path stroke-linecap="round" stroke-linejoin="round" fill-opacity="0" class="tertiary" stroke="rgb(178,104,54)" stroke-opacity="1" stroke-width="7" d=" M0,129 C71.24500274658203,129 129,71.24500274658203 129,0 C129,-71.24500274658203 71.24500274658203,-129 0,-129 C-71.24500274658203,-129 -129,-71.24500274658203 -129,0 C-129,71.24500274658203 -71.24500274658203,129 0,129z"/></g></g><g transform="matrix(1,0,0,1,214.5,214.5)" opacity="1" style="display: block;"><g opacity="1" transform="matrix(1,0,0,1,0,0)"><path class="secondary" fill="rgb(255,199,56)" fill-opacity="1" d=" M0,-167.5 C92.50800323486328,-167.5 167.5,-92.50800323486328 167.5,0 C167.5,92.50800323486328 92.50800323486328,167.5 0,167.5 C-92.50800323486328,167.5 -167.5,92.50800323486328 -167.5,0 C-167.5,-92.50800323486328 -92.50800323486328,-167.5 0,-167.5z"/></g></g><g mask="url(#__lottie_element_878_2)" style="display: block;"><g transform="matrix(1,0,0,1,214.5,214.5)" opacity="1"><g opacity="1" transform="matrix(1,0,0,1,0,0)"><path class="secondary" fill="rgb(255,199,56)" fill-opacity="1" d=" M0,-167.5 C92.50800323486328,-167.5 167.5,-92.50800323486328 167.5,0 C167.5,92.50800323486328 92.50800323486328,167.5 0,167.5 C-92.50800323486328,167.5 -167.5,92.50800323486328 -167.5,0 C-167.5,-92.50800323486328 -92.50800323486328,-167.5 0,-167.5z"/><path class="secondary" fill="rgb(255,199,56)" fill-opacity="0.5" d=" M0,-167.5 C92.50800323486328,-167.5 167.5,-92.50800323486328 167.5,0 C167.5,92.50800323486328 92.50800323486328,167.5 0,167.5 C-92.50800323486328,167.5 -167.5,92.50800323486328 -167.5,0 C-167.5,-92.50800323486328 -92.50800323486328,-167.5 0,-167.5z" style="mix-blend-mode: multiply;"/></g></g></g><g transform="matrix(1,0,0,1,214.5,214.5)" opacity="1" style="display: block;"><g opacity="1" transform="matrix(1,0,0,1,0,0)"><path stroke-linecap="round" stroke-linejoin="round" fill-opacity="0" class="tertiary" stroke="rgb(178,104,54)" stroke-opacity="1" stroke-width="7" d=" M0,129 C71.24500274658203,129 129,71.24500274658203 129,0 C129,-71.24500274658203 71.24500274658203,-129 0,-129 C-71.24500274658203,-129 -129,-71.24500274658203 -129,0 C-129,71.24500274658203 -71.24500274658203,129 0,129z"/></g></g><g transform="matrix(1,0,0,1,251.19085693359375,214.5)" opacity="1" style="display: none;"><g opacity="1" transform="matrix(1,0,0,1,0,0)"><path class="secondary" fill="rgb(255,199,56)" fill-opacity="1" d=" M0,-167.5 C17.78973388671875,-167.5 32.211265563964844,-92.50800323486328 32.211265563964844,0 C32.211265563964844,92.50800323486328 17.78973388671875,167.5 0,167.5 C-17.78973388671875,167.5 -32.211265563964844,92.50800323486328 -32.211265563964844,0 C-32.211265563964844,-92.50800323486328 -17.78973388671875,-167.5 0,-167.5z"/></g></g><g mask="url(#__lottie_element_756_2)" style="display: none;"><g transform="matrix(1,0,0,1,251.19085693359375,214.5)" opacity="1"><g opacity="1" transform="matrix(1,0,0,1,0,0)"><path class="secondary" fill="rgb(255,199,56)" fill-opacity="1" d=" M0,-167.5 C17.78973388671875,-167.5 32.211265563964844,-92.50800323486328 32.211265563964844,0 C32.211265563964844,92.50800323486328 17.78973388671875,167.5 0,167.5 C-17.78973388671875,167.5 -32.211265563964844,92.50800323486328 -32.211265563964844,0 C-32.211265563964844,-92.50800323486328 -17.78973388671875,-167.5 0,-167.5z"/><path class="secondary" fill="rgb(255,199,56)" fill-opacity="0.01" d=" M0,-167.5 C17.78973388671875,-167.5 32.211265563964844,-92.50800323486328 32.211265563964844,0 C32.211265563964844,92.50800323486328 17.78973388671875,167.5 0,167.5 C-17.78973388671875,167.5 -32.211265563964844,92.50800323486328 -32.211265563964844,0 C-32.211265563964844,-92.50800323486328 -17.78973388671875,-167.5 0,-167.5z" style="mix-blend-mode: multiply;"/></g></g></g><g transform="matrix(1,0,0,1,251.19085693359375,214.5)" opacity="1" style="display: none;"><g opacity="1" transform="matrix(1,0,0,1,0,0)"><path stroke-linecap="round" stroke-linejoin="round" fill-opacity="0" class="tertiary" stroke="rgb(178,104,54)" stroke-opacity="1" stroke-width="7" d=" M0,129 C13.701111793518066,129 24.807422637939453,71.24500274658203 24.807422637939453,0 C24.807422637939453,-71.24500274658203 13.701111793518066,-129 0,-129 C-13.701111793518066,-129 -24.807422637939453,-71.24500274658203 -24.807422637939453,0 C-24.807422637939453,71.24500274658203 -13.701111793518066,129 0,129z"/></g></g><g transform="matrix(1,0,0,1,214.5,214.5)" opacity="1" style="display: block;"><g opacity="1" transform="matrix(1,0,0,1,0,0)"><path class="secondary" fill="rgb(255,199,56)" fill-opacity="0" d=" M0,-167.5 C92.50800323486328,-167.5 167.5,-92.50800323486328 167.5,0 C167.5,92.50800323486328 92.50800323486328,167.5 0,167.5 C0,167.5 0,167.5 0,167.5"/></g></g><g transform="matrix(1,0,0,1,214.5,214.5)" opacity="1" style="display: block;"><g opacity="0" transform="matrix(1,0,0,1,0,0)"><path stroke-linecap="round" stroke-linejoin="round" fill-opacity="0" class="tertiary" stroke="rgb(178,104,54)" stroke-opacity="1" stroke-width="0" d=" M0,129 C71.24500274658203,129 129,71.24500274658203 129,0 C129,-71.24500274658203 71.24500274658203,-129 0,-129 C-71.24500274658203,-129 -129,-71.24500274658203 -129,0 C-129,71.24500274658203 -71.24500274658203,129 0,129z"/></g></g><g transform="matrix(1,0,0,1,253.96795654296875,215)" opacity="1" style="display: none;"><g opacity="1" transform="matrix(1,0,0,1,0,0)"><path stroke-linecap="round" stroke-linejoin="round" fill-opacity="0" class="tertiary" stroke="rgb(178,104,54)" stroke-opacity="1" stroke-width="0.06299999999771444" d=" M0.9864069819450378,-81.52799987792969 C0.9864069819450378,-81.52799987792969 0.9864069819450378,-55.44499969482422 0.9864069819450378,-55.44499969482422 M0.9864069819450378,57.263999938964844 C0.9864069819450378,57.263999938964844 0.9864069819450378,81.52799987792969 0.9864069819450378,81.52799987792969 M1.0090570449829102,36.143001556396484 C1.002557635307312,49.57400131225586 0.99119633436203,57.14400100708008 0.9806127548217773,54.94599914550781 C0.9768235683441162,54.090999603271484 0.9728859066963196,51.650001525878906 0.9691365361213684,47.25400161743164 C0.9653871655464172,42.736000061035156 0.9636769890785217,36.26499938964844 0.9637508988380432,29.30500030517578 C0.9633415341377258,-10.98799991607666 1.0080177783966064,9.281000137329102 1.0055292844772339,-30.156999588012695 C1.005193829536438,-40.65700149536133 0.9992915391921997,-49.448001861572266 0.9932754039764404,-52.62300109863281 C0.9822085499763489,-58.48400115966797 0.9696198105812073,-48.8380012512207 0.9642341732978821,-32.84299850463867"/></g></g><g transform="matrix(1,0,0,1,213.96800231933594,215)" opacity="1" style="display: block;"><g opacity="1" transform="matrix(1,0,0,1,0,0)"><path stroke-linecap="round" stroke-linejoin="round" fill-opacity="0" class="tertiary" stroke="rgb(178,104,54)" stroke-opacity="1" stroke-width="7" d=" M0,-81.52799987792969 C0,-81.52799987792969 0,-55.44499969482422 0,-55.44499969482422 M0,57.263999938964844 C0,57.263999938964844 0,81.52799987792969 0,81.52799987792969 M-37.152000427246094,36.143001556396484 C-26.34600067138672,49.57400131225586 -8.661999702453613,57.14400100708008 8.652999877929688,54.94599914550781 C15.652999877929688,54.090999603271484 22.4060001373291,51.650001525878906 27.80900001525879,47.25400161743164 C33.21200180053711,42.736000061035156 37.01900100708008,36.26499938964844 37.141998291015625,29.30500030517578 C38.124000549316406,-10.98799991607666 -35.55500030517578,9.281000137329102 -31.3799991607666,-30.156999588012695 C-30.274999618530273,-40.65700149536133 -21.802000045776367,-49.448001861572266 -11.854999542236328,-52.62300109863281 C6.318999767303467,-58.48400115966797 26.950000762939453,-48.8380012512207 36.28300094604492,-32.84299850463867"/></g></g><g transform="matrix(1,0,0,1,174.65745544433594,214.5)" opacity="1" style="display: none;"><g opacity="1" transform="matrix(1,0,0,1,0,0)"><path stroke-linecap="round" stroke-linejoin="round" fill-opacity="0" class="primary" stroke="rgb(18,19,49)" stroke-opacity="1" stroke-width="7" d=" M0,167.5 C0,167.5 0,167.5 0,167.5 C-3.5302534103393555,167.5 -6.3923187255859375,92.50800323486328 -6.3923187255859375,0 C-6.3923187255859375,-92.50800323486328 -3.5302534103393555,-167.5 0,-167.5"/></g></g><g transform="matrix(1,0,0,1,214.5,214.5)" opacity="1" style="display: none;"><g opacity="1" transform="matrix(1,0,0,1,0,0)"><path stroke-linecap="round" stroke-linejoin="round" fill-opacity="0" class="primary" stroke="rgb(18,19,49)" stroke-opacity="1" stroke-width="7" d=" M0,-167.5 C92.50800323486328,-167.5 167.5,-92.50800323486328 167.5,0 C167.5,92.50800323486328 92.50800323486328,167.5 0,167.5 C-92.50800323486328,167.5 -167.5,92.50800323486328 -167.5,0 C-167.5,-92.50800323486328 -92.50800323486328,-167.5 0,-167.5z"/></g></g><g transform="matrix(1,0,0,1,214.5,214.5)" opacity="1" style="display: none;"><g opacity="1" transform="matrix(1,0,0,1,0,0)"><path stroke-linecap="round" stroke-linejoin="round" fill-opacity="0" class="primary" stroke="rgb(18,19,49)" stroke-opacity="1" stroke-width="7" d=" M0,-167.5 C92.50800323486328,-167.5 167.5,-92.50800323486328 167.5,0 C167.5,92.50800323486328 92.50800323486328,167.5 0,167.5 C0,167.5 0,167.5 0,167.5"/></g></g><g transform="matrix(1,0,0,1,215,214.5)" opacity="1" style="display: none;"><g opacity="1" transform="matrix(1,0,0,1,-0.7710000276565552,-0.30000001192092896)"/><g opacity="1" transform="matrix(1,0,0,1,0,0)"><path stroke-linecap="round" stroke-linejoin="miter" fill-opacity="0" stroke-miterlimit="4" class="primary" stroke="rgb(18,19,49)" stroke-opacity="1" stroke-width="7" d=" M0,167.5 C0,167.5 -0.5,167.5 -0.5,167.5 M99.5,134.5 C99.5,134.5 99,134.5 99,134.5 M133.5,100.5 C133.5,100.5 133,100.5 133,100.5 M153,66.5 C153,66.5 152.5,66.5 152.5,66.5 M164,33.5 C164,33.5 163.5,33.5 163.5,33.5 M167.5,-0.5 C167.5,-0.5 167,-0.5 167,-0.5 M164,-33.5 C164,-33.5 163.5,-33.5 163.5,-33.5 M153,-67.5 C153,-67.5 152.5,-67.5 152.5,-67.5 M133.5,-100.5 C133.5,-100.5 133,-100.5 133,-100.5 M99.5,-134.5 C99.5,-134.5 99,-134.5 99,-134.5 M0,-167.5 C0,-167.5 -0.5,-167.5 -0.5,-167.5"/></g></g><g transform="matrix(1,0,0,1,174.5000457763672,214.5)" opacity="1" style="display: none;"><g opacity="1" transform="matrix(1,0,0,1,0,0)"><path stroke-linecap="round" stroke-linejoin="round" fill-opacity="0" class="primary" stroke="rgb(18,19,49)" stroke-opacity="1" stroke-width="7" d=" M0,167.5 C0,167.5 0,167.5 0,167.5 C-0.3314179480075836,167.5 -0.6003425717353821,92.50800323486328 -0.6003425717353821,0 C-0.6003425717353821,-92.50800323486328 -0.3314179480075836,-167.5 0,-167.5"/></g></g><g transform="matrix(1,0,0,1,214.5,214.5)" opacity="1" style="display: block;"><g opacity="1" transform="matrix(1,0,0,1,0,0)"><path stroke-linecap="round" stroke-linejoin="round" fill-opacity="0" class="primary" stroke="rgb(18,19,49)" stroke-opacity="1" stroke-width="7" d=" M0,-167.5 C92.50800323486328,-167.5 167.5,-92.50800323486328 167.5,0 C167.5,92.50800323486328 92.50800323486328,167.5 0,167.5 C-92.50800323486328,167.5 -167.5,92.50800323486328 -167.5,0 C-167.5,-92.50800323486328 -92.50800323486328,-167.5 0,-167.5z"/></g></g><g transform="matrix(1,0,0,1,214.5,214.5)" opacity="1" style="display: block;"><g opacity="1" transform="matrix(1,0,0,1,0,0)"><path stroke-linecap="round" stroke-linejoin="round" fill-opacity="0" class="primary" stroke="rgb(18,19,49)" stroke-opacity="1" stroke-width="7" d=" M0,-167.5 C92.50800323486328,-167.5 167.5,-92.50800323486328 167.5,0 C167.5,92.50800323486328 92.50800323486328,167.5 0,167.5 C0,167.5 0,167.5 0,167.5"/></g></g><g transform="matrix(1,0,0,1,215,214.5)" opacity="1" style="display: block;"><g opacity="1" transform="matrix(1,0,0,1,-0.7710000276565552,-0.30000001192092896)"/><g opacity="1" transform="matrix(1,0,0,1,0,0)"><path stroke-linecap="round" stroke-linejoin="miter" fill-opacity="0" stroke-miterlimit="4" class="primary" stroke="rgb(18,19,49)" stroke-opacity="1" stroke-width="7" d=" M0,167.5 C0,167.5 -0.5,167.5 -0.5,167.5 M99.5,134.5 C99.5,134.5 99,134.5 99,134.5 M133.5,100.5 C133.5,100.5 133,100.5 133,100.5 M153,66.5 C153,66.5 152.5,66.5 152.5,66.5 M164,33.5 C164,33.5 163.5,33.5 163.5,33.5 M167.5,-0.5 C167.5,-0.5 167,-0.5 167,-0.5 M164,-33.5 C164,-33.5 163.5,-33.5 163.5,-33.5 M153,-67.5 C153,-67.5 152.5,-67.5 152.5,-67.5 M133.5,-100.5 C133.5,-100.5 133,-100.5 133,-100.5 M99.5,-134.5 C99.5,-134.5 99,-134.5 99,-134.5 M0,-167.5 C0,-167.5 -0.5,-167.5 -0.5,-167.5"/></g></g></g></g></svg>